# xmcd
#
# Track frame offsets:
# 150
# 20097
# 38541
# 61917
# 80861
# 98645
# 118896
# 133128
# 148951
# 167607
# 186694
# 222665
# 244512
# 261107
# 277059
#
# Disc length: 3899 seconds
#
#
# Revision: 0
# Processed by: cddbd v1.5.1PL2 Copyright (c) Steve Scherf et al.
# Submitted via: FreeRIP 2.944 
#
DISCID=ee0f390f
DTITLE=Barry White - Gold
DYEAR=2006
DGENRE=Blues
TTITLE0=CD1 - Love' s Theme
TTITLE1=CD1 - I'm Gonna Love You Just A Little Bit More Baby
TTITLE2=CD1 - I've Got So Much To Give
TTITLE3=CD1 - Never Never Gonna Give Ya Up
TTITLE4=CD1 - Honey Please,Can't Ya See
TTITLE5=CD1 - Can't Get Enough Of Your Love Baby
TTITLE6=CD1 - You're The First,The Last,My Everything
TTITLE7=CD1 - Satin Soul
TTITLE8=CD1 - What Am I Gonna Do With You
TTITLE9=CD1 - I Do For You Anything You Want Me To
TTITLE10=CD1 - Let The Music Play
TTITLE11=CD1 - You See The Trouble With Me
TTITLE12=CD1 - Baby We Better Try To Get It Together
TTITLE13=CD1 - Walking In The Rain(Whit The One I Love)
TTITLE14=CD1 - It May Be Winter Outside(But In My Heart It's Spring)
EXTD=byValentinuccia
EXTT0=
EXTT1=
EXTT2=
EXTT3=
EXTT4=
EXTT5=
EXTT6=
EXTT7=
EXTT8=
EXTT9=
EXTT10=
EXTT11=
EXTT12=
EXTT13=
EXTT14=
PLAYORDER=
